<?xml version="1.0" standalone="no"?>
<!DOCTYPE svg PUBLIC "-//W3C//DTD SVG 20010904//EN"
 "http://www.w3.org/TR/2001/REC-SVG-20010904/DTD/svg10.dtd">
<svg version="1.0" xmlns="http://www.w3.org/2000/svg"
 width="388.000000pt" height="388.000000pt" viewBox="0 0 388.000000 388.000000"
 preserveAspectRatio="xMidYMid meet">
<metadata>
Created by potrace 1.14, written by Peter Selinger 2001-2017
</metadata>
<g transform="translate(0.000000,388.000000) scale(0.100000,-0.100000)"
fill="#000000" stroke="none">
<path d="M2158 3875 c-2 -2 -28 -5 -58 -8 -166 -17 -353 -88 -515 -195 -98
-66 -244 -215 -312 -318 -109 -168 -168 -339 -197 -574 -4 -25 -8 -54 -10 -65
-6 -29 -25 -161 -32 -220 -3 -27 -8 -61 -10 -75 -2 -14 -6 -45 -9 -70 -3 -25
-8 -61 -11 -80 -3 -19 -7 -51 -9 -70 -2 -19 -6 -55 -9 -80 -3 -25 -8 -65 -11
-90 -3 -25 -7 -65 -11 -90 -3 -25 -7 -65 -10 -90 -2 -25 -6 -63 -8 -85 -2 -22
-7 -71 -11 -110 -3 -38 -8 -89 -11 -113 -40 -351 -50 -976 -19 -1157 10 -60
16 -95 17 -102 0 -5 9 -31 18 -58 101 -293 312 -298 598 -15 88 87 136 153
232 315 161 272 233 390 256 422 13 17 24 34 24 37 0 10 122 181 167 234 72
85 213 164 413 233 104 36 180 81 249 150 241 237 470 627 515 879 31 167 25
364 -15 517 -103 395 -397 704 -785 826 -44 14 -100 28 -125 32 -24 3 -52 8
-63 12 -18 5 -243 12 -248 8z"/>
</g>
</svg>
